:SAMPLES-PER-SECOND 30
:FULLY-SPECIFIED
:DEGREES
51
root  0.673892 39.916 3.79139 -156.033 -83.9367 149.537
RightUpLeg  1.7635 -10.8556 -16.4516
RightLeg  4.12671 1.56933 -1.46688
RightFoot  4.39595 -2.07011 15.1211
RightToes  -6.40286e-010 0 -3.6325e-017
Spine  11.2273 0.913513 2.073
Spine1  -2.81897 2.57221 -11.0341
HEad  -1.62751 -8.47563 -5.85342
LeftShoulder1  3.13276 -8.0937 -20.6074
LeftArm  3.64148 7.23205 -45.5979
LeftForeArm  3.45235 -7.65964 -14.2223
LeftHand  -0.349178 1.60286 10.6024
RightShoulder  1.70222 3.57995 17.4732
RightArm  11.0605 -2.1165 60.6751
RightForeArm  28.4794 3.38585 16.3193
RightHand  -0.0463243 -5.06696 -9.56765
LeftUpLeg  5.12449 9.01214 4.7225
LeftLeg  7.95387 7.71334 1.83777
LeftFoot  -3.57515 0.724173 -10.3331
LeftToes  -2.09187e-010 -4.93792e-011 -8.21189e-011
52
root  0.609349 39.9809 3.32833 -158.561 -85.4019 152.22
RightUpLeg  2.40133 -10.3675 -14.6605
RightLeg  3.83884 -0.303741 -1.6329
RightFoot  4.41113 -1.84361 13.4874
RightToes  -6.40286e-010 0 -3.6325e-017
Spine  11.152 0.419161 2.57234
Spine1  -2.77769 1.95013 -9.45788
HEad  -1.64804 -8.05332 -5.80818
LeftShoulder1  3.17732 -8.18426 -20.7914
LeftArm  2.88862 8.42243 -46.2611
LeftForeArm  4.38834 -7.08612 -14.3646
LeftHand  -0.355553 1.2738 9.96802
RightShoulder  1.70039 3.50638 17.7194
RightArm  9.54327 -2.59054 58.8684
RightForeArm  26.0586 4.46015 15.9072
RightHand  -0.12667 -4.22753 -11.1067
LeftUpLeg  5.0274 9.16935 6.30426
LeftLeg  7.55369 6.26504 2.02468
LeftFoot  -3.07706 0.799409 -10.7876
LeftToes  -2.09187e-010 -4.93792e-011 -8.21189e-011
53
root  0.584625 40.0008 2.88821 -165.957 -86.7622 159.831
RightUpLeg  2.76 -10.069 -13.0573
RightLeg  3.80954 -1.98965 -1.42933
RightFoot  3.94386 -1.73827 13.1072
RightToes  -6.40286e-010 0 -3.6325e-017
Spine  11.331 -0.000512187 3.42292
Spine1  -2.98902 1.45183 -8.08325
HEad  -1.6538 -7.94596 -5.6608
LeftShoulder1  3.19884 -8.25105 -20.8222
LeftArm  3.02338 9.39926 -47.0722
LeftForeArm  5.4856 -6.63195 -14.5526
LeftHand  -0.343626 0.850921 8.77582
RightShoulder  1.6822 3.45324 17.6367
RightArm  8.22439 -3.29144 57.4226
RightForeArm  22.719 5.72427 15.4276
RightHand  -0.23779 -3.35259 -12.9576
LeftUpLeg  4.4144 9.27169 7.99878
LeftLeg  7.90792 4.85139 2.17066
LeftFoot  -2.81597 0.864391 -11.3442
LeftToes  -2.09187e-010 -4.93792e-011 -8.21189e-011
54
root  0.594764 39.9793 2.48983 175.723 -87.9722 178.346
RightUpLeg  2.90445 -10.1885 -11.8922
RightLeg  4.1082 -3.21447 -0.799007
RightFoot  3.29557 -1.68422 13.2353
RightToes  -6.40286e-010 0 -3.6325e-017
Spine  11.6858 -0.397929 4.48969
Spine1  -3.28476 1.03846 -6.88523
HEad  -1.67889 -8.10316 -5.48803
LeftShoulder1  3.2009 -8.35485 -20.586
LeftArm  3.15178 10.2987 -48.0993
LeftForeArm  7.28555 -6.40572 -14.6094
LeftHand  -0.326554 0.321774 7.51077
RightShoulder  1.65779 3.44907 17.2706
RightArm  7.03726 -4.04203 56.3608
RightForeArm  18.9155 6.9677 14.9219
RightHand  -0.334181 -2.77891 -14.5279
LeftUpLeg  3.25308 8.90259 9.57624
LeftLeg  9.20676 3.65414 2.15372
LeftFoot  -2.67329 0.93426 -12.084
LeftToes  -2.09187e-010 -4.93792e-011 -8.21189e-011
55
root  0.618736 39.9451 2.11454 176.567 -89.2326 177.529
RightUpLeg  3.01248 -10.4189 -11.1211
RightLeg  4.72491 -4.24179 -0.278416
RightFoot  2.76182 -1.5797 12.8732
RightToes  -6.40286e-010 0 -3.6325e-017
Spine  12.1187 -0.776286 5.23097
Spine1  -3.41503 0.649009 -5.74411
HEad  -1.75245 -8.45412 -5.27687
LeftShoulder1  3.21663 -8.49025 -20.3998
LeftArm  3.41848 11.0495 -48.9898
LeftForeArm  8.96793 -6.59009 -14.5151
LeftHand  -0.323852 -0.105373 6.90439
RightShoulder  1.66249 3.50535 17.1338
RightArm  6.1056 -4.4663 55.1599
RightForeArm  15.588 7.84435 14.5395
RightHand  -0.387092 -2.51957 -15.3865
LeftUpLeg  1.75707 8.20889 10.9439
LeftLeg  11.2944 2.65732 1.77192
LeftFoot  -2.41722 1.04274 -13.1287
LeftToes  -2.09187e-010 -4.93792e-011 -8.21189e-011
56
root  0.631259 39.9166 1.75632 62.5091 -89.0683 -68.5423
RightUpLeg  3.33496 -10.6762 -10.7204
RightLeg  5.28115 -5.29095 0.0041582
RightFoot  2.19679 -1.4645 12.4214
RightToes  -6.40286e-010 0 -3.6325e-017
Spine  12.5759 -1.10439 5.52152
Spine1  -3.40112 0.281475 -4.52891
HEad  -1.63837 -9.02505 -4.98855
LeftShoulder1  3.23888 -8.59081 -20.358
LeftArm  3.87119 11.4709 -49.5999
LeftForeArm  9.77142 -6.90817 -14.4186
LeftHand  -0.337455 -0.316086 6.94985
RightShoulder  1.69125 3.56449 17.3611
RightArm  4.9421 -4.47678 53.6398
RightForeArm  14.264 7.81068 14.4729
RightHand  -0.397489 -2.47575 -15.5639
LeftUpLeg  0.170467 7.9936 12.2011
LeftLeg  13.7136 1.04776 0.895418
LeftFoot  -1.78176 1.24374 -14.6693
LeftToes  -2.09187e-010 -4.93792e-011 -8.21189e-011
57
root  0.616262 39.8589 1.4373 12.3891 -87.894 -18.5134
RightUpLeg  3.61498 -11.0392 -10.5129
RightLeg  5.92908 -6.3176 0.283554
RightFoot  1.33401 -1.37267 12.3984
RightToes  -6.40286e-010 0 -3.6325e-017
Spine  12.9016 -1.33945 5.82448
Spine1  -3.51021 0.0214721 -3.39092
HEad  -0.935115 -9.84572 -4.64714
LeftShoulder1  3.23411 -8.66372 -20.1443
LeftArm  3.95992 11.6558 -50.2012
LeftForeArm  10.1885 -7.02673 -14.3734
LeftHand  -0.346431 -0.411827 7.02488
RightShoulder  1.69622 3.54051 17.5268
RightArm  3.11019 -4.40551 52.2396
RightForeArm  15.4352 6.68221 14.7285
RightHand  -0.390353 -2.53271 -15.577
LeftUpLeg  -1.4955 8.33666 13.395
LeftLeg  16.2639 -1.85099 -0.309611
LeftFoot  -1.13211 1.51063 -16.7378
LeftToes  -2.09187e-010 -4.93792e-011 -8.21189e-011
